<?xml version="1.0" encoding="utf-8"?>
<!-- Generator: Adobe Illustrator 16.0.0, SVG Export Plug-In . SVG Version: 6.00 Build 0)  -->
<!DOCTYPE svg PUBLIC "-//W3C//DTD SVG 1.1//EN" "http://www.w3.org/Graphics/SVG/1.1/DTD/svg11.dtd">
<svg version="1.1" id="Layer_1" xmlns="http://www.w3.org/2000/svg" xmlns:xlink="http://www.w3.org/1999/xlink" x="0px" y="0px"
	 width="361.42px" height="335.605px" viewBox="0 0 361.42 335.605" enable-background="new 0 0 361.42 335.605"
	 xml:space="preserve">
<g>
	<rect x="209.333" y="76.674" fill="#CFD3D6" width="45" height="244.363"/>
	<g>
		<g>
			<path fill="#CFD3D6" d="M208.155,189.082c0.382,30.953-0.564,61.98-0.586,92.051c0,13.404,0,26.734,0.001,39.711v0.75h1.357
				c15.33-0.006,30.292-0.01,44.975-0.016h1.333l-0.001-0.734c-0.095-74.943-0.339-146.537-0.006-214.945
				c0.018-6.346,0.042-16.784,0.06-23.292c-0.087-13.518-1.604,0.146-1.814,6.613c-1.352,40.605-1.101,84.987-0.66,120.885
				c0.455,37.035,0.506,73.975,0.414,110.738l0.677-0.375c-15.013-0.016-30.012-0.029-44.975-0.045l0.759,0.42
				c0.326-82.459,1.086-164.03-0.646-243.997l-0.111,0.063c5.91-0.042,11.786-0.083,17.657-0.124
				c8.018-0.062,41.928-0.302,20.104-0.583c-9.925-0.128-24.168-0.159-37.762-0.151h-1.446l0.007,0.795
				c0.075,9.425,0.146,18.295,0.172,21.271C207.939,127.351,207.773,157.983,208.155,189.082z M208.542,177.998
				c-0.189,0.574-0.589-3.717-0.351-4.445C208.382,172.978,208.782,177.269,208.542,177.998z"/>
		</g>
	</g>
</g>
<g>
	<rect x="269.333" y="25.259" fill="#EAEBED" width="44.998" height="295.78"/>
	<g>
		<g>
			<path fill="#EAEBED" d="M268.155,163.838c0.382,36.886-0.564,73.855-0.586,109.685c0,15.996,0,31.902,0.001,47.318v0.75h1.357
				c15.367-0.002,30.299-0.008,44.975-0.012h1.338l-0.001-0.738c-0.091-90.986-0.35-177.906-0.011-260.886
				c0.016-7.563,0.042-20.001,0.059-27.755c-0.087-16.106-1.602,0.175-1.813,7.881c-1.354,48.385-1.103,101.269-0.659,144.045
				c0.471,45.729,0.509,91.338,0.402,136.715l0.688-0.379c-15.014-0.016-30.014-0.027-44.975-0.041l0.759,0.42
				c0.331-99.896,1.111-198.69-0.733-295.502l-0.023,0.013c4.16-0.023,8.293-0.05,12.424-0.075c9.554-0.06,49.959-0.3,23.957-0.583
				c-9.726-0.104-22.928-0.146-36.381-0.15h-1.438l-0.001,0.797c-0.021,12.848,0.138,26.06,0.171,30.105
				C267.939,90.283,267.773,126.782,268.155,163.838z M268.542,150.633c-0.189,0.686-0.589-4.43-0.351-5.298
				C268.382,144.651,268.782,149.764,268.542,150.633z"/>
		</g>
	</g>
</g>
<g>
	<rect x="93.333" y="7.567" fill="#EAEBED" width="45" height="313.472"/>
	<g>
		<g>
			<path fill="#EAEBED" d="M92.155,155.26c0.382,38.898-0.564,77.892-0.586,115.679c0,16.875,0,33.656,0.001,49.902v0.75h1.357
				c15.378-0.002,30.301-0.006,44.975-0.01l1.341-0.002v-0.738c-0.091-96.439-0.354-188.565-0.014-276.5
				c0.018-7.974,0.042-21.094,0.06-29.271c-0.087-16.985-1.604,0.186-1.814,8.313c-1.352,51.029-1.101,106.801-0.66,151.917
				c0.478,48.684,0.512,97.236,0.399,145.543l0.688-0.381c-15.014-0.016-30.015-0.025-44.975-0.039l0.759,0.42
				c0.333-105.82,1.119-210.469-0.761-313.007h0.002c3.564-0.021,7.105-0.041,10.646-0.063c10.072-0.06,52.688-0.3,25.265-0.583
				c-9.655-0.099-22.563-0.141-35.91-0.148l-1.436-0.001L91.49,7.836c-0.035,13.96,0.134,28.699,0.168,33.109
				C91.939,77.685,91.773,116.179,92.155,155.26z M92.542,141.333c-0.189,0.723-0.589-4.671-0.351-5.587
				C92.382,135.024,92.782,140.417,92.542,141.333z"/>
		</g>
	</g>
</g>
<g>
	<rect x="35.333" y="146.888" fill="#CFD3D6" width="45" height="174.149"/>
	<g>
		<g>
			<path fill="#CFD3D6" d="M34.155,223.445c0.382,22.883-0.564,45.816-0.586,68.043c0,9.881,0,19.707,0.001,29.355v0.75h1.356
				c15.268-0.008,30.278-0.016,44.976-0.021h1.321l-0.001-0.729c-0.102-53.094-0.313-103.834,0.006-152.4
				c0.031-4.688,0.101-12.408,0.06-17.217c-0.087-9.992-1.604,0.108-1.814,4.889c-1.352,30.018-1.101,62.821-0.66,89.358
				c0.418,25.195,0.496,50.334,0.435,75.371l0.656-0.363c-15.013-0.02-30.007-0.037-44.976-0.057l0.76,0.42
				c0.313-58.721,1.03-116.84-0.466-173.875l-0.292,0.161c8.289-0.075,16.542-0.149,24.781-0.224
				c5.926-0.062,30.992-0.302,14.859-0.582c-10.424-0.185-27.289-0.171-39.644-0.129l-1.403,0.007l0.012,0.766
				c0.06,4.399,0.104,7.775,0.125,9.234C33.939,177.816,33.773,200.457,34.155,223.445z M34.542,215.254
				c-0.189,0.426-0.589-2.748-0.351-3.287C34.382,211.543,34.782,214.715,34.542,215.254z"/>
		</g>
	</g>
</g>
<g>
	<g>
		<g>
			<path fill="#959A9D" d="M16.151,248.437c-0.38-19.119,0.565-38.281,0.586-56.854c0.07-60.268-0.462-118.093-0.03-172.641
				c0.03-3.919,0.1-10.365,0.059-14.386c-0.088-8.349-1.603,0.09-1.813,4.085c-1.353,25.079-1.102,52.49-0.66,74.663
				c1.62,81.489-1.876,162.24,1.202,240.48c0.106,2.736,0.543,14.316,1.054,6.863c0.521-7.629,0.156-22.725,0.104-26.029
				C16.366,286.564,16.532,267.644,16.151,248.437z M15.764,255.281c0.189-0.354,0.589,2.295,0.349,2.746
				C15.924,258.383,15.523,255.732,15.764,255.281z"/>
		</g>
	</g>
</g>
<g>
	<g>
		<g>
			<path fill="#959A9D" d="M269.836,320.322c-20.678,0.209-41.403-0.313-61.489-0.324c-65.182-0.037-127.726,0.258-186.72,0.02
				c-4.238-0.02-11.213-0.055-15.562-0.033c-9.028,0.049,0.1,0.887,4.418,1.004c27.125,0.748,56.771,0.609,80.752,0.365
				c88.136-0.896,175.473,1.037,260.092-0.664c2.961-0.061,15.484-0.301,7.428-0.584c-8.25-0.287-24.579-0.086-28.153-0.057
				C311.072,320.201,290.61,320.111,269.836,320.322z M277.239,320.535c-0.384-0.104,2.483-0.324,2.972-0.191
				C280.593,320.447,277.726,320.668,277.239,320.535z"/>
		</g>
	</g>
</g>
</svg>
