<?xml version="1.0" encoding="utf-8"?>
<!-- Generator: Adobe Illustrator 16.0.0, SVG Export Plug-In . SVG Version: 6.00 Build 0)  -->
<!DOCTYPE svg PUBLIC "-//W3C//DTD SVG 1.1//EN" "http://www.w3.org/Graphics/SVG/1.1/DTD/svg11.dtd">
<svg version="1.1" id="Layer_1" xmlns="http://www.w3.org/2000/svg" xmlns:xlink="http://www.w3.org/1999/xlink" x="0px" y="0px"
	 width="254.333px" height="251.833px" viewBox="0 0 254.333 251.833" enable-background="new 0 0 254.333 251.833"
	 xml:space="preserve">
<g>
	<g>
		<path fill="#E9EBEE" d="M125.34,126.166L78.835,235.26c-62.39-25.061-92.157-94.219-66.34-154.467
			C32.117,35.005,77.224,6.69,128.499,8.062L125.34,126.166z"/>
		<g>
			<g>
				<path fill="#959A9D" d="M101.32,9.162c-8.065,1.767-16.102,3.827-23.735,6.995l-2.889,1.114
					c-0.973,0.347-1.877,0.854-2.82,1.271l-5.604,2.625c-1.829,0.949-3.606,1.996-5.413,2.987l-2.7,1.505
					c-0.874,0.543-1.724,1.125-2.586,1.686c-1.72,1.134-3.438,2.266-5.155,3.397c-1.63,1.255-3.258,2.509-4.884,3.761
					c-0.807,0.635-1.643,1.236-2.424,1.899l-2.288,2.056c-1.513,1.382-3.075,2.715-4.54,4.141c-1.411,1.483-2.819,2.964-4.226,4.443
					c-0.687,0.754-1.44,1.451-2.069,2.254l-1.924,2.373c-1.263,1.595-2.596,3.136-3.786,4.778c-1.144,1.676-2.285,3.35-3.423,5.02
					c-1.34,1.845-2.43,3.878-3.574,5.867l-1.707,2.989c-0.277,0.499-0.583,0.993-0.835,1.497l-0.721,1.518
					c-0.96,2.024-1.919,4.047-2.878,6.067l-0.18,0.379l-0.09,0.189l-0.07,0.16l-0.04,0.099l-0.315,0.791l-0.629,1.582l-1.257,3.161
					c-3.125,8.514-5.234,17.361-6.301,26.293c-1.059,8.932-1.106,17.951-0.074,26.807c1.047,8.854,3.099,17.538,6.058,25.85
					c5.87,16.66,15.589,31.67,27.694,43.943c12.116,12.295,26.71,21.789,42.325,28.033l1.403,0.561l0.592-1.387
					c11.912-27.955,23.325-54.584,34.642-80.689c2.675-6.168,7.096-16.309,9.75-22.672c5.51-13.221-2.025-0.694-4.975,5.496
					c-15.039,31.554-29.818,66.082-42.442,96.576c0.764-0.316,1.527-0.634,2.256-0.937c-7.313-2.864-13.927-6.212-19.967-9.897
					c-22.164-13.336-39.553-34.461-48.468-58.736c-4.462-12.135-6.792-25.018-6.942-37.898c-0.026-6.442,0.493-12.876,1.537-19.218
					c0.298-1.579,0.522-3.172,0.88-4.737l1.087-4.692c0.867-3.091,1.707-6.189,2.816-9.201l0.784-2.273l0.895-2.231l0.901-2.228
					l0.451-1.114c0.116-0.292,0.334-0.708,0.497-1.057l2.104-4.371c0.722-1.44,1.346-2.957,2.192-4.297l2.395-4.13l1.195-2.064
					c0.393-0.69,0.888-1.326,1.327-1.992l2.71-3.95c0.456-0.655,0.892-1.325,1.364-1.966l1.501-1.865
					c7.842-10.063,17.313-18.796,27.89-25.799c10.574-7.012,22.243-12.293,34.41-15.688c12.167-3.404,24.824-4.921,37.415-4.641
					l-1.49-1.573c-0.746,34.283-1.179,68.347-1.05,102.153c0.019,4.698,0.068,24.571,1.089,11.811
					c1.045-13.064,1.25-38.968,1.333-44.637c0.328-22.393,0.988-45.549,1.473-69.25l0.027-1.368l-1.305,0.021
					c-2.246,0.037-4.503,0.073-6.771,0.11c-1.133,0.037-2.271,0-3.406,0.101c-1.134,0.104-2.27,0.207-3.408,0.311
					c-1.137,0.105-2.276,0.211-3.417,0.316c-1.141,0.102-2.284,0.196-3.412,0.419C105.857,8.391,103.59,8.776,101.32,9.162z
					 M113.093,8.114c-0.64-0.202,3.891-1.106,4.688-0.85C118.4,7.466,113.891,8.371,113.093,8.114z"/>
			</g>
		</g>
	</g>
	<g>
		<path fill="#82888C" d="M125.34,126.166l3.159-118.104c69.975,1.872,125.119,56.261,123.375,121.487
			c-1.746,65.229-59.574,116.597-129.317,114.73c-16.739-0.447-29.757-3.031-45.233-9.059L125.34,126.166z"/>
		<g>
			<g>
				<path fill="#959A9D" d="M127.328,245.325c19.367-0.31,38.655-4.593,56.232-12.559c8.757-4.047,17.058-9.037,24.668-14.871
					c7.636-5.807,14.444-12.605,20.362-20.007l1.367-1.703l1.287-1.765c0.844-1.187,1.729-2.342,2.539-3.551l2.381-3.652
					c0.815-1.204,1.486-2.496,2.235-3.74c0.738-1.25,1.468-2.505,2.108-3.809c0.66-1.291,1.343-2.57,1.98-3.871
					c1.188-2.645,2.44-5.258,3.438-7.978c1.115-2.671,1.947-5.442,2.873-8.178l1.152-4.172c0.409-1.384,0.717-2.792,1.014-4.201
					c0.289-1.411,0.654-2.808,0.875-4.229l0.69-4.258c0.253-1.412,0.337-2.871,0.513-4.305c0.15-1.438,0.332-2.887,0.373-4.283
					l0.223-4.227c0.038-1.516,0.008-2.887,0.014-4.334l-0.004-2.145l-0.115-2.141c-0.084-1.426-0.146-2.853-0.252-4.275
					c-0.545-5.682-1.414-11.319-2.746-16.843c-2.705-11.028-6.98-21.615-12.714-31.271c-11.411-19.36-28.118-35.129-47.3-45.672
					c-1.177-0.701-2.404-1.303-3.622-1.925c-1.223-0.61-2.423-1.265-3.661-1.836c-2.494-1.107-4.943-2.306-7.492-3.258
					c-5.022-2.097-10.219-3.684-15.412-5.165c-10.453-2.737-21.145-4.258-31.795-4.59l-1.546-0.048l-0.042,1.554
					c-0.78,28.486-1.564,55.449-2.414,82.023c-0.252,7.879-0.689,20.841-0.851,28.922c-0.333,16.788,2.139-0.125,2.639-8.148
					c2.107-33.705,3.314-69.533,4.058-102.705c-0.653,0.619-1.307,1.238-1.937,1.834c16.503,0.373,32.082,3.692,45.696,8.926
					c14.924,5.708,28.779,14.286,40.46,25.219c11.687,10.917,21.181,24.202,27.479,38.881c3.153,7.333,5.513,15.004,7,22.835
					c1.488,7.82,2.102,15.843,1.863,23.746c-0.459,15.961-4.458,31.666-11.542,45.834c-7.061,14.178-17.118,26.763-29.12,36.953
					c-12,10.207-25.931,18.039-40.742,23.143c-14.813,5.104-30.502,7.54-46.102,7.193c-7.862-0.156-15.584-0.814-23.236-2.276
					c-7.636-1.438-15.087-3.733-22.365-6.507l0.787,1.902c13.367-30.935,26.417-61.752,39.017-92.521
					c2.086-5.097,10.939-26.645,4.279-13.202c-6.819,13.762-18.61,41.748-21.224,47.859c-7.921,18.505-16.224,37.422-24.65,56.729
					l-0.583,1.334l1.352,0.522c7.9,3.06,16.166,5.522,24.672,6.974l3.191,0.536l3.215,0.392c2.139,0.293,4.303,0.442,6.468,0.596
					c2.172,0.197,4.304,0.213,6.455,0.298l1.611,0.053l1.645-0.01L127.328,245.325z M113.531,244.284
					c0.349,0.154-0.822,0.254-2.2,0.266c-1.379,0.021-2.94-0.176-3.375-0.377c-0.341-0.17,0.837-0.217,2.201-0.17
					C111.525,244.025,113.09,244.077,113.531,244.284z"/>
			</g>
		</g>
	</g>
</g>
</svg>
